<svg width="160" height="44" viewBox="0 0 160 44" xmlns="http://www.w3.org/2000/svg">
<rect width="44" height="44" rx="10" fill="#FF2442"/>
<path d="M22 8C15.5 8 11 13 11 19C11 23 13 26.5 16 28.5L16 32C16 32.7 16.6 33.3 17.3 33.3L26.7 33.3C27.4 33.3 28 32.7 28 32L28 28.5C31 26.5 33 23 33 19C33 13 28.5 8 22 8Z" fill="none" stroke="white" stroke-width="2" stroke-linejoin="round"/>
<line x1="18.5" y1="35" x2="25.5" y2="35" stroke="white" stroke-width="1.5" stroke-linecap="round"/>
<line x1="19.5" y1="37.5" x2="24.5" y2="37.5" stroke="white" stroke-width="1.2" stroke-linecap="round"/>
<path d="M22 14.5L22 23" stroke="white" stroke-width="1.5" stroke-linecap="round"/>
<path d="M18.5 20.5L22 23L25.5 20.5" fill="none" stroke="white" stroke-width="1.5" stroke-linecap="round" stroke-linejoin="round"/>
<text x="54" y="30" fill="#1A1A1A" font-size="22" font-weight="700" font-family="system-ui, -apple-system, 'PingFang SC', sans-serif" letter-spacing="-0.5">IdeaShu</text>
</svg>
